<mxfile host="app.diagrams.net" agent="Mozilla/5.0 (Macintosh; Intel Mac OS X 10_15_7) AppleWebKit/605.1.15 (KHTML, like Gecko) Version/18.3 Safari/605.1.15" version="26.2.3">
  <diagram name="Sivu-1" id="u6crSexEZOHk-pDCQiRK">
    <mxGraphModel dx="2040" dy="1120" grid="1" gridSize="10" guides="1" tooltips="1" connect="1" arrows="1" fold="1" page="1" pageScale="1" pageWidth="827" pageHeight="1169" background="#ffffff" math="0" shadow="0">
      <root>
        <mxCell id="0" />
        <mxCell id="1" parent="0" />
        <mxCell id="cgtVKE11mU0UAlwjLC16-152" value="" style="rounded=0;whiteSpace=wrap;html=1;fillColor=#d5e8d4;strokeColor=#82b366;opacity=30;" parent="1" vertex="1">
          <mxGeometry x="40" y="850" width="1290" height="750" as="geometry" />
        </mxCell>
        <mxCell id="cgtVKE11mU0UAlwjLC16-36" value="Käyttäjä" style="swimlane;fontStyle=0;childLayout=stackLayout;horizontal=1;startSize=26;horizontalStack=0;resizeParent=1;resizeParentMax=0;resizeLast=0;collapsible=1;marginBottom=0;align=center;fontSize=14;" parent="1" vertex="1">
          <mxGeometry x="858" y="1137" width="160" height="236" as="geometry" />
        </mxCell>
        <mxCell id="cgtVKE11mU0UAlwjLC16-37" value="- käyttäjä_id: serial" style="text;strokeColor=none;fillColor=default;spacingLeft=4;spacingRight=4;overflow=hidden;rotatable=0;points=[[0,0.5],[1,0.5]];portConstraint=eastwest;fontSize=12;whiteSpace=wrap;html=1;" parent="cgtVKE11mU0UAlwjLC16-36" vertex="1">
          <mxGeometry y="26" width="160" height="30" as="geometry" />
        </mxCell>
        <mxCell id="cgtVKE11mU0UAlwjLC16-38" value="- nimi: string" style="text;strokeColor=none;fillColor=default;spacingLeft=4;spacingRight=4;overflow=hidden;rotatable=0;points=[[0,0.5],[1,0.5]];portConstraint=eastwest;fontSize=12;whiteSpace=wrap;html=1;" parent="cgtVKE11mU0UAlwjLC16-36" vertex="1">
          <mxGeometry y="56" width="160" height="30" as="geometry" />
        </mxCell>
        <mxCell id="cgtVKE11mU0UAlwjLC16-39" value="- osoite: string" style="text;strokeColor=none;fillColor=default;spacingLeft=4;spacingRight=4;overflow=hidden;rotatable=0;points=[[0,0.5],[1,0.5]];portConstraint=eastwest;fontSize=12;whiteSpace=wrap;html=1;" parent="cgtVKE11mU0UAlwjLC16-36" vertex="1">
          <mxGeometry y="86" width="160" height="30" as="geometry" />
        </mxCell>
        <mxCell id="cgtVKE11mU0UAlwjLC16-41" value="- puhelin: string" style="text;strokeColor=none;fillColor=default;spacingLeft=4;spacingRight=4;overflow=hidden;rotatable=0;points=[[0,0.5],[1,0.5]];portConstraint=eastwest;fontSize=12;whiteSpace=wrap;html=1;" parent="cgtVKE11mU0UAlwjLC16-36" vertex="1">
          <mxGeometry y="116" width="160" height="30" as="geometry" />
        </mxCell>
        <mxCell id="cgtVKE11mU0UAlwjLC16-40" value="- email: string" style="text;strokeColor=none;fillColor=default;spacingLeft=4;spacingRight=4;overflow=hidden;rotatable=0;points=[[0,0.5],[1,0.5]];portConstraint=eastwest;fontSize=12;whiteSpace=wrap;html=1;" parent="cgtVKE11mU0UAlwjLC16-36" vertex="1">
          <mxGeometry y="146" width="160" height="30" as="geometry" />
        </mxCell>
        <mxCell id="BLsTgjMZ4pQWwNHHydRY-11" value="- salasana: string" style="text;strokeColor=none;fillColor=default;spacingLeft=4;spacingRight=4;overflow=hidden;rotatable=0;points=[[0,0.5],[1,0.5]];portConstraint=eastwest;fontSize=12;whiteSpace=wrap;html=1;" parent="cgtVKE11mU0UAlwjLC16-36" vertex="1">
          <mxGeometry y="176" width="160" height="30" as="geometry" />
        </mxCell>
        <mxCell id="BLsTgjMZ4pQWwNHHydRY-12" value="- pääkäyttäjä: boolean" style="text;strokeColor=none;fillColor=default;spacingLeft=4;spacingRight=4;overflow=hidden;rotatable=0;points=[[0,0.5],[1,0.5]];portConstraint=eastwest;fontSize=12;whiteSpace=wrap;html=1;" parent="cgtVKE11mU0UAlwjLC16-36" vertex="1">
          <mxGeometry y="206" width="160" height="30" as="geometry" />
        </mxCell>
        <mxCell id="cgtVKE11mU0UAlwjLC16-42" value="Tilaus" style="swimlane;fontStyle=0;childLayout=stackLayout;horizontal=1;startSize=26;horizontalStack=0;resizeParent=1;resizeParentMax=0;resizeLast=0;collapsible=1;marginBottom=0;align=center;fontSize=14;" parent="1" vertex="1">
          <mxGeometry x="858" y="910" width="160" height="116" as="geometry" />
        </mxCell>
        <mxCell id="cgtVKE11mU0UAlwjLC16-43" value="- tilaus_id: serial" style="text;strokeColor=none;fillColor=default;spacingLeft=4;spacingRight=4;overflow=hidden;rotatable=0;points=[[0,0.5],[1,0.5]];portConstraint=eastwest;fontSize=12;whiteSpace=wrap;html=1;" parent="cgtVKE11mU0UAlwjLC16-42" vertex="1">
          <mxGeometry y="26" width="160" height="30" as="geometry" />
        </mxCell>
        <mxCell id="BLsTgjMZ4pQWwNHHydRY-24" value="- myyntipäivä: date" style="text;strokeColor=none;fillColor=default;spacingLeft=4;spacingRight=4;overflow=hidden;rotatable=0;points=[[0,0.5],[1,0.5]];portConstraint=eastwest;fontSize=12;whiteSpace=wrap;html=1;" parent="cgtVKE11mU0UAlwjLC16-42" vertex="1">
          <mxGeometry y="56" width="160" height="30" as="geometry" />
        </mxCell>
        <mxCell id="BLsTgjMZ4pQWwNHHydRY-85" value="- tila: enum type" style="text;strokeColor=none;fillColor=default;spacingLeft=4;spacingRight=4;overflow=hidden;rotatable=0;points=[[0,0.5],[1,0.5]];portConstraint=eastwest;fontSize=12;whiteSpace=wrap;html=1;" parent="cgtVKE11mU0UAlwjLC16-42" vertex="1">
          <mxGeometry y="86" width="160" height="30" as="geometry" />
        </mxCell>
        <mxCell id="cgtVKE11mU0UAlwjLC16-55" value="Nide" style="swimlane;fontStyle=0;childLayout=stackLayout;horizontal=1;startSize=26;horizontalStack=0;resizeParent=1;resizeParentMax=0;resizeLast=0;collapsible=1;marginBottom=0;align=center;fontSize=14;" parent="1" vertex="1">
          <mxGeometry x="600" y="1380" width="160" height="176" as="geometry" />
        </mxCell>
        <mxCell id="cgtVKE11mU0UAlwjLC16-56" value="- nide_id: serial" style="text;strokeColor=none;fillColor=default;spacingLeft=4;spacingRight=4;overflow=hidden;rotatable=0;points=[[0,0.5],[1,0.5]];portConstraint=eastwest;fontSize=12;whiteSpace=wrap;html=1;" parent="cgtVKE11mU0UAlwjLC16-55" vertex="1">
          <mxGeometry y="26" width="160" height="30" as="geometry" />
        </mxCell>
        <mxCell id="BLsTgjMZ4pQWwNHHydRY-32" value="- hinta: decimal" style="text;strokeColor=none;fillColor=default;spacingLeft=4;spacingRight=4;overflow=hidden;rotatable=0;points=[[0,0.5],[1,0.5]];portConstraint=eastwest;fontSize=12;whiteSpace=wrap;html=1;" parent="cgtVKE11mU0UAlwjLC16-55" vertex="1">
          <mxGeometry y="56" width="160" height="30" as="geometry" />
        </mxCell>
        <mxCell id="BLsTgjMZ4pQWwNHHydRY-33" value="- sisäänostohinta: decimal&lt;div&gt;&lt;br&gt;&lt;/div&gt;" style="text;strokeColor=none;fillColor=default;spacingLeft=4;spacingRight=4;overflow=hidden;rotatable=0;points=[[0,0.5],[1,0.5]];portConstraint=eastwest;fontSize=12;whiteSpace=wrap;html=1;" parent="cgtVKE11mU0UAlwjLC16-55" vertex="1">
          <mxGeometry y="86" width="160" height="30" as="geometry" />
        </mxCell>
        <mxCell id="BLsTgjMZ4pQWwNHHydRY-184" value="&lt;div&gt;- lähde_skeema: string&lt;/div&gt;" style="text;strokeColor=none;fillColor=default;spacingLeft=4;spacingRight=4;overflow=hidden;rotatable=0;points=[[0,0.5],[1,0.5]];portConstraint=eastwest;fontSize=12;whiteSpace=wrap;html=1;" parent="cgtVKE11mU0UAlwjLC16-55" vertex="1">
          <mxGeometry y="116" width="160" height="30" as="geometry" />
        </mxCell>
        <mxCell id="BLsTgjMZ4pQWwNHHydRY-176" value="- tila: enum type&lt;div&gt;&lt;br&gt;&lt;/div&gt;" style="text;strokeColor=none;fillColor=default;spacingLeft=4;spacingRight=4;overflow=hidden;rotatable=0;points=[[0,0.5],[1,0.5]];portConstraint=eastwest;fontSize=12;whiteSpace=wrap;html=1;" parent="cgtVKE11mU0UAlwjLC16-55" vertex="1">
          <mxGeometry y="146" width="160" height="30" as="geometry" />
        </mxCell>
        <mxCell id="cgtVKE11mU0UAlwjLC16-116" value="Divari_D2" style="swimlane;fontStyle=0;childLayout=stackLayout;horizontal=1;startSize=26;horizontalStack=0;resizeParent=1;resizeParentMax=0;resizeLast=0;collapsible=1;marginBottom=0;align=center;fontSize=14;" parent="1" vertex="1">
          <mxGeometry x="340" y="915.5" width="160" height="146" as="geometry" />
        </mxCell>
        <mxCell id="cgtVKE11mU0UAlwjLC16-117" value="- divari_id: serial" style="text;strokeColor=none;fillColor=default;spacingLeft=4;spacingRight=4;overflow=hidden;rotatable=0;points=[[0,0.5],[1,0.5]];portConstraint=eastwest;fontSize=12;whiteSpace=wrap;html=1;" parent="cgtVKE11mU0UAlwjLC16-116" vertex="1">
          <mxGeometry y="26" width="160" height="30" as="geometry" />
        </mxCell>
        <mxCell id="cgtVKE11mU0UAlwjLC16-118" value="- nimi: string&amp;nbsp;" style="text;strokeColor=none;fillColor=default;spacingLeft=4;spacingRight=4;overflow=hidden;rotatable=0;points=[[0,0.5],[1,0.5]];portConstraint=eastwest;fontSize=12;whiteSpace=wrap;html=1;" parent="cgtVKE11mU0UAlwjLC16-116" vertex="1">
          <mxGeometry y="56" width="160" height="30" as="geometry" />
        </mxCell>
        <mxCell id="cgtVKE11mU0UAlwjLC16-119" value="- osoite: string" style="text;strokeColor=none;fillColor=default;spacingLeft=4;spacingRight=4;overflow=hidden;rotatable=0;points=[[0,0.5],[1,0.5]];portConstraint=eastwest;fontSize=12;whiteSpace=wrap;html=1;" parent="cgtVKE11mU0UAlwjLC16-116" vertex="1">
          <mxGeometry y="86" width="160" height="30" as="geometry" />
        </mxCell>
        <mxCell id="cgtVKE11mU0UAlwjLC16-286" value="- web_sivu: string" style="text;strokeColor=none;fillColor=default;spacingLeft=4;spacingRight=4;overflow=hidden;rotatable=0;points=[[0,0.5],[1,0.5]];portConstraint=eastwest;fontSize=12;whiteSpace=wrap;html=1;" parent="cgtVKE11mU0UAlwjLC16-116" vertex="1">
          <mxGeometry y="116" width="160" height="30" as="geometry" />
        </mxCell>
        <mxCell id="cgtVKE11mU0UAlwjLC16-131" value="&lt;font style=&quot;font-size: 22px;&quot;&gt;Keskusdivari&lt;/font&gt;&lt;div&gt;&lt;font style=&quot;font-size: 22px;&quot;&gt;skeema&lt;/font&gt;&lt;/div&gt;" style="text;html=1;align=center;verticalAlign=middle;whiteSpace=wrap;rounded=0;" parent="1" vertex="1">
          <mxGeometry x="90" y="900" width="180" height="30" as="geometry" />
        </mxCell>
        <mxCell id="cgtVKE11mU0UAlwjLC16-153" value="" style="rounded=0;whiteSpace=wrap;html=1;fillColor=#fff2cc;strokeColor=#d6b656;opacity=30;" parent="1" vertex="1">
          <mxGeometry x="40" y="270" width="1290" height="550" as="geometry" />
        </mxCell>
        <mxCell id="cgtVKE11mU0UAlwjLC16-160" value="Divari_D1" style="swimlane;fontStyle=0;childLayout=stackLayout;horizontal=1;startSize=26;horizontalStack=0;resizeParent=1;resizeParentMax=0;resizeLast=0;collapsible=1;marginBottom=0;align=center;fontSize=14;" parent="1" vertex="1">
          <mxGeometry x="870" y="510" width="160" height="146" as="geometry" />
        </mxCell>
        <mxCell id="cgtVKE11mU0UAlwjLC16-161" value="- divari_id: serial" style="text;strokeColor=none;fillColor=default;spacingLeft=4;spacingRight=4;overflow=hidden;rotatable=0;points=[[0,0.5],[1,0.5]];portConstraint=eastwest;fontSize=12;whiteSpace=wrap;html=1;" parent="cgtVKE11mU0UAlwjLC16-160" vertex="1">
          <mxGeometry y="26" width="160" height="30" as="geometry" />
        </mxCell>
        <mxCell id="cgtVKE11mU0UAlwjLC16-162" value="- nimi: string&amp;nbsp;" style="text;strokeColor=none;fillColor=default;spacingLeft=4;spacingRight=4;overflow=hidden;rotatable=0;points=[[0,0.5],[1,0.5]];portConstraint=eastwest;fontSize=12;whiteSpace=wrap;html=1;" parent="cgtVKE11mU0UAlwjLC16-160" vertex="1">
          <mxGeometry y="56" width="160" height="30" as="geometry" />
        </mxCell>
        <mxCell id="cgtVKE11mU0UAlwjLC16-163" value="- osoite: string" style="text;strokeColor=none;fillColor=default;spacingLeft=4;spacingRight=4;overflow=hidden;rotatable=0;points=[[0,0.5],[1,0.5]];portConstraint=eastwest;fontSize=12;whiteSpace=wrap;html=1;" parent="cgtVKE11mU0UAlwjLC16-160" vertex="1">
          <mxGeometry y="86" width="160" height="30" as="geometry" />
        </mxCell>
        <mxCell id="JSi-ECLEcafVT-QjLjjl-6" value="- web_sivu: string" style="text;strokeColor=none;fillColor=default;spacingLeft=4;spacingRight=4;overflow=hidden;rotatable=0;points=[[0,0.5],[1,0.5]];portConstraint=eastwest;fontSize=12;whiteSpace=wrap;html=1;" vertex="1" parent="cgtVKE11mU0UAlwjLC16-160">
          <mxGeometry y="116" width="160" height="30" as="geometry" />
        </mxCell>
        <mxCell id="cgtVKE11mU0UAlwjLC16-170" value="&lt;font style=&quot;font-size: 22px;&quot;&gt;D1_divari&lt;/font&gt;&lt;div&gt;&lt;font style=&quot;font-size: 22px;&quot;&gt;skeema&lt;/font&gt;&lt;/div&gt;" style="text;html=1;align=center;verticalAlign=middle;whiteSpace=wrap;rounded=0;" parent="1" vertex="1">
          <mxGeometry x="80" y="320" width="206" height="30" as="geometry" />
        </mxCell>
        <mxCell id="cgtVKE11mU0UAlwjLC16-171" value="&lt;div style=&quot;&quot;&gt;&lt;span style=&quot;font-size: 14px;&quot;&gt;Paikallinen tietokanta D1, jossa&lt;/span&gt;&lt;/div&gt;&lt;div&gt;&lt;ul&gt;&lt;li style=&quot;text-align: left;&quot;&gt;&lt;span style=&quot;font-size: 14px;&quot;&gt;D1 divarin tuotteet&lt;/span&gt;&lt;/li&gt;&lt;li style=&quot;text-align: left;&quot;&gt;&lt;span style=&quot;font-size: 14px;&quot;&gt;Yhteydessä Keskusdivarin Tilaus-tauluun&lt;/span&gt;&lt;/li&gt;&lt;li style=&quot;text-align: left;&quot;&gt;&lt;span style=&quot;font-size: 14px;&quot;&gt;D1 divarin yhteystiedot&lt;/span&gt;&lt;/li&gt;&lt;/ul&gt;&lt;/div&gt;" style="text;html=1;align=center;verticalAlign=middle;whiteSpace=wrap;rounded=0;" parent="1" vertex="1">
          <mxGeometry x="70" y="380" width="254" height="110" as="geometry" />
        </mxCell>
        <mxCell id="cgtVKE11mU0UAlwjLC16-178" value="" style="rounded=0;whiteSpace=wrap;html=1;fillColor=#d5e8d4;strokeColor=#82b366;opacity=30;" parent="1" vertex="1">
          <mxGeometry x="1410" y="850" width="1130" height="750" as="geometry" />
        </mxCell>
        <mxCell id="cgtVKE11mU0UAlwjLC16-179" value="" style="rounded=0;whiteSpace=wrap;html=1;fillColor=#fff2cc;strokeColor=#d6b656;opacity=30;" parent="1" vertex="1">
          <mxGeometry x="1410" y="270" width="1130" height="550" as="geometry" />
        </mxCell>
        <mxCell id="cgtVKE11mU0UAlwjLC16-195" value="Käyttäjä" style="swimlane;fontStyle=0;childLayout=stackLayout;horizontal=1;startSize=26;horizontalStack=0;resizeParent=1;resizeParentMax=0;resizeLast=0;collapsible=1;marginBottom=0;align=center;fontSize=14;" parent="1" vertex="1">
          <mxGeometry x="2060" y="1220" width="160" height="236" as="geometry" />
        </mxCell>
        <mxCell id="cgtVKE11mU0UAlwjLC16-196" value="käyttäjä_id&lt;span style=&quot;white-space: pre;&quot;&gt;&#x9;&lt;/span&gt;&lt;span style=&quot;white-space: pre;&quot;&gt;&#x9;&lt;/span&gt;&lt;span style=&quot;white-space: pre;&quot;&gt;&#x9;PK&lt;/span&gt;" style="text;strokeColor=none;fillColor=default;spacingLeft=4;spacingRight=4;overflow=hidden;rotatable=0;points=[[0,0.5],[1,0.5]];portConstraint=eastwest;fontSize=12;whiteSpace=wrap;html=1;" parent="cgtVKE11mU0UAlwjLC16-195" vertex="1">
          <mxGeometry y="26" width="160" height="30" as="geometry" />
        </mxCell>
        <mxCell id="cgtVKE11mU0UAlwjLC16-197" value="nimi" style="text;strokeColor=none;fillColor=default;spacingLeft=4;spacingRight=4;overflow=hidden;rotatable=0;points=[[0,0.5],[1,0.5]];portConstraint=eastwest;fontSize=12;whiteSpace=wrap;html=1;" parent="cgtVKE11mU0UAlwjLC16-195" vertex="1">
          <mxGeometry y="56" width="160" height="30" as="geometry" />
        </mxCell>
        <mxCell id="cgtVKE11mU0UAlwjLC16-198" value="osoite" style="text;strokeColor=none;fillColor=default;spacingLeft=4;spacingRight=4;overflow=hidden;rotatable=0;points=[[0,0.5],[1,0.5]];portConstraint=eastwest;fontSize=12;whiteSpace=wrap;html=1;" parent="cgtVKE11mU0UAlwjLC16-195" vertex="1">
          <mxGeometry y="86" width="160" height="30" as="geometry" />
        </mxCell>
        <mxCell id="cgtVKE11mU0UAlwjLC16-199" value="email" style="text;strokeColor=none;fillColor=default;spacingLeft=4;spacingRight=4;overflow=hidden;rotatable=0;points=[[0,0.5],[1,0.5]];portConstraint=eastwest;fontSize=12;whiteSpace=wrap;html=1;" parent="cgtVKE11mU0UAlwjLC16-195" vertex="1">
          <mxGeometry y="116" width="160" height="30" as="geometry" />
        </mxCell>
        <mxCell id="cgtVKE11mU0UAlwjLC16-200" value="puhelin" style="text;strokeColor=none;fillColor=default;spacingLeft=4;spacingRight=4;overflow=hidden;rotatable=0;points=[[0,0.5],[1,0.5]];portConstraint=eastwest;fontSize=12;whiteSpace=wrap;html=1;" parent="cgtVKE11mU0UAlwjLC16-195" vertex="1">
          <mxGeometry y="146" width="160" height="30" as="geometry" />
        </mxCell>
        <mxCell id="BLsTgjMZ4pQWwNHHydRY-27" value="salasana" style="text;strokeColor=none;fillColor=default;spacingLeft=4;spacingRight=4;overflow=hidden;rotatable=0;points=[[0,0.5],[1,0.5]];portConstraint=eastwest;fontSize=12;whiteSpace=wrap;html=1;" parent="cgtVKE11mU0UAlwjLC16-195" vertex="1">
          <mxGeometry y="176" width="160" height="30" as="geometry" />
        </mxCell>
        <mxCell id="BLsTgjMZ4pQWwNHHydRY-28" value="pääkäyttäjä" style="text;strokeColor=none;fillColor=default;spacingLeft=4;spacingRight=4;overflow=hidden;rotatable=0;points=[[0,0.5],[1,0.5]];portConstraint=eastwest;fontSize=12;whiteSpace=wrap;html=1;" parent="cgtVKE11mU0UAlwjLC16-195" vertex="1">
          <mxGeometry y="206" width="160" height="30" as="geometry" />
        </mxCell>
        <mxCell id="cgtVKE11mU0UAlwjLC16-201" value="Tilaus" style="swimlane;fontStyle=0;childLayout=stackLayout;horizontal=1;startSize=26;horizontalStack=0;resizeParent=1;resizeParentMax=0;resizeLast=0;collapsible=1;marginBottom=0;align=center;fontSize=14;" parent="1" vertex="1">
          <mxGeometry x="2060" y="960" width="160" height="176" as="geometry" />
        </mxCell>
        <mxCell id="cgtVKE11mU0UAlwjLC16-202" value="tilaus_id&lt;span style=&quot;white-space: pre;&quot;&gt;&#x9;&lt;/span&gt;&lt;span style=&quot;white-space: pre;&quot;&gt;&#x9;&lt;/span&gt;&lt;span style=&quot;white-space: pre;&quot;&gt;&#x9;&lt;/span&gt;&lt;span style=&quot;white-space: pre;&quot;&gt;&#x9;PK&lt;/span&gt;" style="text;strokeColor=none;fillColor=default;spacingLeft=4;spacingRight=4;overflow=hidden;rotatable=0;points=[[0,0.5],[1,0.5]];portConstraint=eastwest;fontSize=12;whiteSpace=wrap;html=1;" parent="cgtVKE11mU0UAlwjLC16-201" vertex="1">
          <mxGeometry y="26" width="160" height="30" as="geometry" />
        </mxCell>
        <mxCell id="BLsTgjMZ4pQWwNHHydRY-25" value="myyntipäivä" style="text;strokeColor=none;fillColor=default;spacingLeft=4;spacingRight=4;overflow=hidden;rotatable=0;points=[[0,0.5],[1,0.5]];portConstraint=eastwest;fontSize=12;whiteSpace=wrap;html=1;" parent="cgtVKE11mU0UAlwjLC16-201" vertex="1">
          <mxGeometry y="56" width="160" height="30" as="geometry" />
        </mxCell>
        <mxCell id="JSi-ECLEcafVT-QjLjjl-13" value="tila" style="text;strokeColor=none;fillColor=default;spacingLeft=4;spacingRight=4;overflow=hidden;rotatable=0;points=[[0,0.5],[1,0.5]];portConstraint=eastwest;fontSize=12;whiteSpace=wrap;html=1;" vertex="1" parent="cgtVKE11mU0UAlwjLC16-201">
          <mxGeometry y="86" width="160" height="30" as="geometry" />
        </mxCell>
        <mxCell id="cgtVKE11mU0UAlwjLC16-241" value="divari_id&lt;span style=&quot;white-space: pre;&quot;&gt;&#x9;&lt;/span&gt;&lt;span style=&quot;white-space: pre;&quot;&gt;&#x9;&lt;/span&gt;&lt;span style=&quot;white-space: pre;&quot;&gt;&#x9;&lt;/span&gt;&lt;span style=&quot;white-space: pre;&quot;&gt;&#x9;FK&lt;/span&gt;" style="text;strokeColor=none;fillColor=default;spacingLeft=4;spacingRight=4;overflow=hidden;rotatable=0;points=[[0,0.5],[1,0.5]];portConstraint=eastwest;fontSize=12;whiteSpace=wrap;html=1;" parent="cgtVKE11mU0UAlwjLC16-201" vertex="1">
          <mxGeometry y="116" width="160" height="30" as="geometry" />
        </mxCell>
        <mxCell id="cgtVKE11mU0UAlwjLC16-242" value="käyttäjä_id&lt;span style=&quot;white-space: pre;&quot;&gt;&#x9;&lt;/span&gt;&lt;span style=&quot;white-space: pre;&quot;&gt;&#x9;&lt;/span&gt;&lt;span style=&quot;white-space: pre;&quot;&gt;&#x9;FK&lt;/span&gt;" style="text;strokeColor=none;fillColor=default;spacingLeft=4;spacingRight=4;overflow=hidden;rotatable=0;points=[[0,0.5],[1,0.5]];portConstraint=eastwest;fontSize=12;whiteSpace=wrap;html=1;" parent="cgtVKE11mU0UAlwjLC16-201" vertex="1">
          <mxGeometry y="146" width="160" height="30" as="geometry" />
        </mxCell>
        <mxCell id="cgtVKE11mU0UAlwjLC16-210" value="Nide" style="swimlane;fontStyle=0;childLayout=stackLayout;horizontal=1;startSize=26;horizontalStack=0;resizeParent=1;resizeParentMax=0;resizeLast=0;collapsible=1;marginBottom=0;align=center;fontSize=14;" parent="1" vertex="1">
          <mxGeometry x="1530" y="1310" width="160" height="206" as="geometry" />
        </mxCell>
        <mxCell id="cgtVKE11mU0UAlwjLC16-211" value="nide_id&lt;span style=&quot;white-space: pre;&quot;&gt;&#x9;&lt;/span&gt;&lt;span style=&quot;white-space: pre;&quot;&gt;&#x9;&lt;/span&gt;&lt;span style=&quot;white-space: pre;&quot;&gt;&#x9;&lt;/span&gt;&lt;span style=&quot;white-space: pre;&quot;&gt;&#x9;PK&lt;/span&gt;" style="text;strokeColor=none;fillColor=default;spacingLeft=4;spacingRight=4;overflow=hidden;rotatable=0;points=[[0,0.5],[1,0.5]];portConstraint=eastwest;fontSize=12;whiteSpace=wrap;html=1;" parent="cgtVKE11mU0UAlwjLC16-210" vertex="1">
          <mxGeometry y="26" width="160" height="30" as="geometry" />
        </mxCell>
        <mxCell id="cgtVKE11mU0UAlwjLC16-212" value="hinta" style="text;strokeColor=none;fillColor=default;spacingLeft=4;spacingRight=4;overflow=hidden;rotatable=0;points=[[0,0.5],[1,0.5]];portConstraint=eastwest;fontSize=12;whiteSpace=wrap;html=1;" parent="cgtVKE11mU0UAlwjLC16-210" vertex="1">
          <mxGeometry y="56" width="160" height="30" as="geometry" />
        </mxCell>
        <mxCell id="BLsTgjMZ4pQWwNHHydRY-102" value="sisäänostohinta" style="text;strokeColor=none;fillColor=default;spacingLeft=4;spacingRight=4;overflow=hidden;rotatable=0;points=[[0,0.5],[1,0.5]];portConstraint=eastwest;fontSize=12;whiteSpace=wrap;html=1;" parent="cgtVKE11mU0UAlwjLC16-210" vertex="1">
          <mxGeometry y="86" width="160" height="30" as="geometry" />
        </mxCell>
        <mxCell id="BLsTgjMZ4pQWwNHHydRY-185" value="lähde_skeema" style="text;strokeColor=none;fillColor=default;spacingLeft=4;spacingRight=4;overflow=hidden;rotatable=0;points=[[0,0.5],[1,0.5]];portConstraint=eastwest;fontSize=12;whiteSpace=wrap;html=1;" parent="cgtVKE11mU0UAlwjLC16-210" vertex="1">
          <mxGeometry y="116" width="160" height="30" as="geometry" />
        </mxCell>
        <mxCell id="BLsTgjMZ4pQWwNHHydRY-179" value="tila&lt;span style=&quot;white-space: pre;&quot;&gt;&#x9;&lt;/span&gt;" style="text;strokeColor=none;fillColor=default;spacingLeft=4;spacingRight=4;overflow=hidden;rotatable=0;points=[[0,0.5],[1,0.5]];portConstraint=eastwest;fontSize=12;whiteSpace=wrap;html=1;" parent="cgtVKE11mU0UAlwjLC16-210" vertex="1">
          <mxGeometry y="146" width="160" height="30" as="geometry" />
        </mxCell>
        <mxCell id="BLsTgjMZ4pQWwNHHydRY-104" value="teos_id&lt;span style=&quot;white-space: pre;&quot;&gt;&#x9;&lt;/span&gt;&lt;span style=&quot;white-space: pre;&quot;&gt;&#x9;&lt;/span&gt;&lt;span style=&quot;white-space: pre;&quot;&gt;&#x9;&lt;/span&gt;&lt;span style=&quot;white-space: pre;&quot;&gt;&#x9;FK&lt;/span&gt;" style="text;strokeColor=none;fillColor=default;spacingLeft=4;spacingRight=4;overflow=hidden;rotatable=0;points=[[0,0.5],[1,0.5]];portConstraint=eastwest;fontSize=12;whiteSpace=wrap;html=1;" parent="cgtVKE11mU0UAlwjLC16-210" vertex="1">
          <mxGeometry y="176" width="160" height="30" as="geometry" />
        </mxCell>
        <mxCell id="cgtVKE11mU0UAlwjLC16-218" value="Divari_D2" style="swimlane;fontStyle=0;childLayout=stackLayout;horizontal=1;startSize=26;horizontalStack=0;resizeParent=1;resizeParentMax=0;resizeLast=0;collapsible=1;marginBottom=0;align=center;fontSize=14;" parent="1" vertex="1">
          <mxGeometry x="1798" y="1202" width="160" height="146" as="geometry" />
        </mxCell>
        <mxCell id="cgtVKE11mU0UAlwjLC16-219" value="divari_id&lt;span style=&quot;white-space: pre;&quot;&gt;&#x9;&lt;/span&gt;&lt;span style=&quot;white-space: pre;&quot;&gt;&#x9;&lt;/span&gt;&lt;span style=&quot;white-space: pre;&quot;&gt;&#x9;&lt;/span&gt;&lt;span style=&quot;white-space: pre;&quot;&gt;&#x9;PK&lt;/span&gt;" style="text;strokeColor=none;fillColor=default;spacingLeft=4;spacingRight=4;overflow=hidden;rotatable=0;points=[[0,0.5],[1,0.5]];portConstraint=eastwest;fontSize=12;whiteSpace=wrap;html=1;" parent="cgtVKE11mU0UAlwjLC16-218" vertex="1">
          <mxGeometry y="26" width="160" height="30" as="geometry" />
        </mxCell>
        <mxCell id="cgtVKE11mU0UAlwjLC16-220" value="nimi" style="text;strokeColor=none;fillColor=default;spacingLeft=4;spacingRight=4;overflow=hidden;rotatable=0;points=[[0,0.5],[1,0.5]];portConstraint=eastwest;fontSize=12;whiteSpace=wrap;html=1;" parent="cgtVKE11mU0UAlwjLC16-218" vertex="1">
          <mxGeometry y="56" width="160" height="30" as="geometry" />
        </mxCell>
        <mxCell id="cgtVKE11mU0UAlwjLC16-221" value="osoite" style="text;strokeColor=none;fillColor=default;spacingLeft=4;spacingRight=4;overflow=hidden;rotatable=0;points=[[0,0.5],[1,0.5]];portConstraint=eastwest;fontSize=12;whiteSpace=wrap;html=1;" parent="cgtVKE11mU0UAlwjLC16-218" vertex="1">
          <mxGeometry y="86" width="160" height="30" as="geometry" />
        </mxCell>
        <mxCell id="cgtVKE11mU0UAlwjLC16-283" value="web_sivu" style="text;strokeColor=none;fillColor=default;spacingLeft=4;spacingRight=4;overflow=hidden;rotatable=0;points=[[0,0.5],[1,0.5]];portConstraint=eastwest;fontSize=12;whiteSpace=wrap;html=1;" parent="cgtVKE11mU0UAlwjLC16-218" vertex="1">
          <mxGeometry y="116" width="160" height="30" as="geometry" />
        </mxCell>
        <mxCell id="cgtVKE11mU0UAlwjLC16-262" value="Ostoskori" style="swimlane;fontStyle=0;childLayout=stackLayout;horizontal=1;startSize=26;horizontalStack=0;resizeParent=1;resizeParentMax=0;resizeLast=0;collapsible=1;marginBottom=0;align=center;fontSize=14;" parent="1" vertex="1">
          <mxGeometry x="1798" y="959" width="160" height="86" as="geometry" />
        </mxCell>
        <mxCell id="cgtVKE11mU0UAlwjLC16-264" value="tilaus_id&lt;span style=&quot;white-space: pre;&quot;&gt;&#x9;&lt;/span&gt;&lt;span style=&quot;white-space: pre;&quot;&gt;&#x9;&lt;/span&gt;&lt;span style=&quot;white-space: pre;&quot;&gt;&#x9;PK, FK&lt;/span&gt;" style="text;strokeColor=none;fillColor=default;spacingLeft=4;spacingRight=4;overflow=hidden;rotatable=0;points=[[0,0.5],[1,0.5]];portConstraint=eastwest;fontSize=12;whiteSpace=wrap;html=1;" parent="cgtVKE11mU0UAlwjLC16-262" vertex="1">
          <mxGeometry y="26" width="160" height="30" as="geometry" />
        </mxCell>
        <mxCell id="BLsTgjMZ4pQWwNHHydRY-161" value="nide_id&lt;span style=&quot;white-space: pre;&quot;&gt;&#x9;&lt;/span&gt;&lt;span style=&quot;white-space: pre;&quot;&gt;&#x9;&lt;/span&gt;&lt;span style=&quot;white-space: pre;&quot;&gt;&#x9;PK, FK&lt;/span&gt;" style="text;strokeColor=none;fillColor=default;spacingLeft=4;spacingRight=4;overflow=hidden;rotatable=0;points=[[0,0.5],[1,0.5]];portConstraint=eastwest;fontSize=12;whiteSpace=wrap;html=1;" parent="cgtVKE11mU0UAlwjLC16-262" vertex="1">
          <mxGeometry y="56" width="160" height="30" as="geometry" />
        </mxCell>
        <mxCell id="cgtVKE11mU0UAlwjLC16-280" style="edgeStyle=orthogonalEdgeStyle;rounded=0;orthogonalLoop=1;jettySize=auto;html=1;entryX=0;entryY=0.5;entryDx=0;entryDy=0;" parent="1" source="cgtVKE11mU0UAlwjLC16-264" target="cgtVKE11mU0UAlwjLC16-202" edge="1">
          <mxGeometry relative="1" as="geometry" />
        </mxCell>
        <mxCell id="cgtVKE11mU0UAlwjLC16-287" value="" style="endArrow=none;html=1;rounded=0;exitX=1;exitY=0.25;exitDx=0;exitDy=0;" parent="1" source="cgtVKE11mU0UAlwjLC16-116" target="cgtVKE11mU0UAlwjLC16-43" edge="1">
          <mxGeometry relative="1" as="geometry">
            <mxPoint x="750" y="1085" as="sourcePoint" />
            <mxPoint x="910" y="1085" as="targetPoint" />
          </mxGeometry>
        </mxCell>
        <mxCell id="cgtVKE11mU0UAlwjLC16-288" value="" style="endArrow=none;html=1;rounded=0;exitX=0.5;exitY=1;exitDx=0;exitDy=0;entryX=0.5;entryY=0;entryDx=0;entryDy=0;" parent="1" source="cgtVKE11mU0UAlwjLC16-116" target="cgtVKE11mU0UAlwjLC16-351" edge="1">
          <mxGeometry relative="1" as="geometry">
            <mxPoint x="570" y="1060.5" as="sourcePoint" />
            <mxPoint x="440" y="1082.5" as="targetPoint" />
          </mxGeometry>
        </mxCell>
        <mxCell id="cgtVKE11mU0UAlwjLC16-290" value="" style="endArrow=none;html=1;rounded=0;exitX=0.5;exitY=1;exitDx=0;exitDy=0;entryX=0.5;entryY=0;entryDx=0;entryDy=0;" parent="1" source="cgtVKE11mU0UAlwjLC16-42" target="cgtVKE11mU0UAlwjLC16-36" edge="1">
          <mxGeometry relative="1" as="geometry">
            <mxPoint x="788" y="1310" as="sourcePoint" />
            <mxPoint x="938" y="1080" as="targetPoint" />
          </mxGeometry>
        </mxCell>
        <mxCell id="cgtVKE11mU0UAlwjLC16-306" value="" style="endArrow=none;html=1;rounded=0;exitX=0;exitY=0.5;exitDx=0;exitDy=0;entryX=1;entryY=0.5;entryDx=0;entryDy=0;" parent="1" source="cgtVKE11mU0UAlwjLC16-161" target="BLsTgjMZ4pQWwNHHydRY-68" edge="1">
          <mxGeometry relative="1" as="geometry">
            <mxPoint x="940" y="422" as="sourcePoint" />
            <mxPoint x="790" y="273" as="targetPoint" />
          </mxGeometry>
        </mxCell>
        <mxCell id="cgtVKE11mU0UAlwjLC16-307" value="" style="endArrow=none;html=1;rounded=0;exitX=0;exitY=0.5;exitDx=0;exitDy=0;entryX=1;entryY=0.5;entryDx=0;entryDy=0;" parent="1" source="BLsTgjMZ4pQWwNHHydRY-68" target="BLsTgjMZ4pQWwNHHydRY-73" edge="1">
          <mxGeometry relative="1" as="geometry">
            <mxPoint x="790" y="479" as="sourcePoint" />
            <mxPoint x="790" y="560" as="targetPoint" />
          </mxGeometry>
        </mxCell>
        <mxCell id="cgtVKE11mU0UAlwjLC16-338" style="edgeStyle=orthogonalEdgeStyle;rounded=0;orthogonalLoop=1;jettySize=auto;html=1;entryX=1;entryY=0.25;entryDx=0;entryDy=0;" parent="1" source="cgtVKE11mU0UAlwjLC16-241" target="cgtVKE11mU0UAlwjLC16-218" edge="1">
          <mxGeometry relative="1" as="geometry" />
        </mxCell>
        <mxCell id="cgtVKE11mU0UAlwjLC16-339" value="&lt;div style=&quot;text-align: center;&quot;&gt;&lt;span style=&quot;font-size: 14px;&quot;&gt;Keskustietokanta, jossa&lt;/span&gt;&lt;/div&gt;&lt;div&gt;&lt;ul&gt;&lt;li&gt;&lt;span style=&quot;font-size: 14px;&quot;&gt;asiakas/käyttäjärekisteri&lt;/span&gt;&lt;br&gt;&lt;/li&gt;&lt;li&gt;&lt;span style=&quot;font-size: 14px;&quot;&gt;D1 ja D2 divarin myyntitoiminta&lt;/span&gt;&lt;br&gt;&lt;/li&gt;&lt;li&gt;&lt;span style=&quot;font-size: 14px;&quot;&gt;D2 divarin tuotteet&lt;/span&gt;&lt;br&gt;&lt;/li&gt;&lt;li&gt;&lt;span style=&quot;font-size: 14px;&quot;&gt;D1 divarin tuotteet kopioituna&lt;/span&gt;&lt;br&gt;&lt;/li&gt;&lt;/ul&gt;&lt;/div&gt;" style="text;html=1;align=left;verticalAlign=middle;whiteSpace=wrap;rounded=0;" parent="1" vertex="1">
          <mxGeometry x="60" y="930" width="240" height="170" as="geometry" />
        </mxCell>
        <mxCell id="cgtVKE11mU0UAlwjLC16-351" value="Teos" style="swimlane;fontStyle=0;childLayout=stackLayout;horizontal=1;startSize=26;horizontalStack=0;resizeParent=1;resizeParentMax=0;resizeLast=0;collapsible=1;marginBottom=0;align=center;fontSize=14;" parent="1" vertex="1">
          <mxGeometry x="340" y="1230" width="160" height="296" as="geometry" />
        </mxCell>
        <mxCell id="cgtVKE11mU0UAlwjLC16-352" value="- teos_id: serial" style="text;strokeColor=none;fillColor=default;spacingLeft=4;spacingRight=4;overflow=hidden;rotatable=0;points=[[0,0.5],[1,0.5]];portConstraint=eastwest;fontSize=12;whiteSpace=wrap;html=1;" parent="cgtVKE11mU0UAlwjLC16-351" vertex="1">
          <mxGeometry y="26" width="160" height="30" as="geometry" />
        </mxCell>
        <mxCell id="cgtVKE11mU0UAlwjLC16-353" value="- nimi: string" style="text;strokeColor=none;fillColor=default;spacingLeft=4;spacingRight=4;overflow=hidden;rotatable=0;points=[[0,0.5],[1,0.5]];portConstraint=eastwest;fontSize=12;whiteSpace=wrap;html=1;" parent="cgtVKE11mU0UAlwjLC16-351" vertex="1">
          <mxGeometry y="56" width="160" height="30" as="geometry" />
        </mxCell>
        <mxCell id="BLsTgjMZ4pQWwNHHydRY-31" value="- tekijä: string" style="text;strokeColor=none;fillColor=default;spacingLeft=4;spacingRight=4;overflow=hidden;rotatable=0;points=[[0,0.5],[1,0.5]];portConstraint=eastwest;fontSize=12;whiteSpace=wrap;html=1;" parent="cgtVKE11mU0UAlwjLC16-351" vertex="1">
          <mxGeometry y="86" width="160" height="30" as="geometry" />
        </mxCell>
        <mxCell id="cgtVKE11mU0UAlwjLC16-354" value="- isbn: string" style="text;strokeColor=none;fillColor=default;spacingLeft=4;spacingRight=4;overflow=hidden;rotatable=0;points=[[0,0.5],[1,0.5]];portConstraint=eastwest;fontSize=12;whiteSpace=wrap;html=1;" parent="cgtVKE11mU0UAlwjLC16-351" vertex="1">
          <mxGeometry y="116" width="160" height="30" as="geometry" />
        </mxCell>
        <mxCell id="cgtVKE11mU0UAlwjLC16-357" value="- julkaisuvuosi: int" style="text;strokeColor=none;fillColor=default;spacingLeft=4;spacingRight=4;overflow=hidden;rotatable=0;points=[[0,0.5],[1,0.5]];portConstraint=eastwest;fontSize=12;whiteSpace=wrap;html=1;" parent="cgtVKE11mU0UAlwjLC16-351" vertex="1">
          <mxGeometry y="146" width="160" height="30" as="geometry" />
        </mxCell>
        <mxCell id="BLsTgjMZ4pQWwNHHydRY-34" value="- teostyyppi: enum type" style="text;strokeColor=none;fillColor=default;spacingLeft=4;spacingRight=4;overflow=hidden;rotatable=0;points=[[0,0.5],[1,0.5]];portConstraint=eastwest;fontSize=12;whiteSpace=wrap;html=1;" parent="cgtVKE11mU0UAlwjLC16-351" vertex="1">
          <mxGeometry y="176" width="160" height="30" as="geometry" />
        </mxCell>
        <mxCell id="JSi-ECLEcafVT-QjLjjl-1" value="- teosluokka: enum type" style="text;strokeColor=none;fillColor=default;spacingLeft=4;spacingRight=4;overflow=hidden;rotatable=0;points=[[0,0.5],[1,0.5]];portConstraint=eastwest;fontSize=12;whiteSpace=wrap;html=1;" vertex="1" parent="cgtVKE11mU0UAlwjLC16-351">
          <mxGeometry y="206" width="160" height="30" as="geometry" />
        </mxCell>
        <mxCell id="BLsTgjMZ4pQWwNHHydRY-87" value="- paino: int" style="text;strokeColor=none;fillColor=default;spacingLeft=4;spacingRight=4;overflow=hidden;rotatable=0;points=[[0,0.5],[1,0.5]];portConstraint=eastwest;fontSize=12;whiteSpace=wrap;html=1;" parent="cgtVKE11mU0UAlwjLC16-351" vertex="1">
          <mxGeometry y="236" width="160" height="30" as="geometry" />
        </mxCell>
        <mxCell id="BLsTgjMZ4pQWwNHHydRY-183" value="- lähde_skeema: string" style="text;strokeColor=none;fillColor=default;spacingLeft=4;spacingRight=4;overflow=hidden;rotatable=0;points=[[0,0.5],[1,0.5]];portConstraint=eastwest;fontSize=12;whiteSpace=wrap;html=1;" parent="cgtVKE11mU0UAlwjLC16-351" vertex="1">
          <mxGeometry y="266" width="160" height="30" as="geometry" />
        </mxCell>
        <mxCell id="cgtVKE11mU0UAlwjLC16-361" value="" style="endArrow=none;html=1;rounded=0;exitX=1;exitY=0.5;exitDx=0;exitDy=0;entryX=0;entryY=0.5;entryDx=0;entryDy=0;" parent="1" source="JSi-ECLEcafVT-QjLjjl-1" target="BLsTgjMZ4pQWwNHHydRY-32" edge="1">
          <mxGeometry relative="1" as="geometry">
            <mxPoint x="289.5" y="1310" as="sourcePoint" />
            <mxPoint x="289.5" y="1365" as="targetPoint" />
          </mxGeometry>
        </mxCell>
        <mxCell id="cgtVKE11mU0UAlwjLC16-370" value="0..*" style="text;html=1;align=center;verticalAlign=middle;whiteSpace=wrap;rounded=0;" parent="1" vertex="1">
          <mxGeometry x="808" y="925" width="60" height="30" as="geometry" />
        </mxCell>
        <mxCell id="cgtVKE11mU0UAlwjLC16-371" value="1" style="text;html=1;align=center;verticalAlign=middle;whiteSpace=wrap;rounded=0;" parent="1" vertex="1">
          <mxGeometry x="490" y="925" width="60" height="30" as="geometry" />
        </mxCell>
        <mxCell id="cgtVKE11mU0UAlwjLC16-372" value="0..*" style="text;html=1;align=center;verticalAlign=middle;whiteSpace=wrap;rounded=0;" parent="1" vertex="1">
          <mxGeometry x="410" y="1200" width="60" height="30" as="geometry" />
        </mxCell>
        <mxCell id="cgtVKE11mU0UAlwjLC16-373" value="1" style="text;html=1;align=center;verticalAlign=middle;whiteSpace=wrap;rounded=0;" parent="1" vertex="1">
          <mxGeometry x="404" y="1062" width="60" height="30" as="geometry" />
        </mxCell>
        <mxCell id="cgtVKE11mU0UAlwjLC16-374" value="0..*" style="text;html=1;align=center;verticalAlign=middle;whiteSpace=wrap;rounded=0;" parent="1" vertex="1">
          <mxGeometry x="550" y="1423" width="60" height="30" as="geometry" />
        </mxCell>
        <mxCell id="cgtVKE11mU0UAlwjLC16-375" value="1" style="text;html=1;align=center;verticalAlign=middle;whiteSpace=wrap;rounded=0;" parent="1" vertex="1">
          <mxGeometry x="480" y="1423" width="60" height="30" as="geometry" />
        </mxCell>
        <mxCell id="cgtVKE11mU0UAlwjLC16-376" value="1" style="text;html=1;align=center;verticalAlign=middle;whiteSpace=wrap;rounded=0;" parent="1" vertex="1">
          <mxGeometry x="920" y="1100" width="60" height="30" as="geometry" />
        </mxCell>
        <mxCell id="cgtVKE11mU0UAlwjLC16-377" value="0..*" style="text;html=1;align=center;verticalAlign=middle;whiteSpace=wrap;rounded=0;" parent="1" vertex="1">
          <mxGeometry x="930" y="1026" width="60" height="30" as="geometry" />
        </mxCell>
        <mxCell id="cgtVKE11mU0UAlwjLC16-380" value="0..*" style="text;html=1;align=center;verticalAlign=middle;whiteSpace=wrap;rounded=0;" parent="1" vertex="1">
          <mxGeometry x="750" y="523" width="60" height="30" as="geometry" />
        </mxCell>
        <mxCell id="cgtVKE11mU0UAlwjLC16-381" value="1" style="text;html=1;align=center;verticalAlign=middle;whiteSpace=wrap;rounded=0;" parent="1" vertex="1">
          <mxGeometry x="820" y="523" width="60" height="30" as="geometry" />
        </mxCell>
        <mxCell id="cgtVKE11mU0UAlwjLC16-386" value="&lt;font style=&quot;font-size: 23px;&quot;&gt;UML&lt;/font&gt;" style="text;html=1;align=center;verticalAlign=middle;whiteSpace=wrap;rounded=0;" parent="1" vertex="1">
          <mxGeometry x="1190" y="1540" width="60" height="30" as="geometry" />
        </mxCell>
        <mxCell id="cgtVKE11mU0UAlwjLC16-387" value="&lt;font style=&quot;font-size: 23px;&quot;&gt;UML&lt;/font&gt;" style="text;html=1;align=center;verticalAlign=middle;whiteSpace=wrap;rounded=0;" parent="1" vertex="1">
          <mxGeometry x="1181" y="760" width="60" height="30" as="geometry" />
        </mxCell>
        <mxCell id="cgtVKE11mU0UAlwjLC16-388" value="&lt;font style=&quot;font-size: 23px;&quot;&gt;ER&lt;/font&gt;" style="text;html=1;align=center;verticalAlign=middle;whiteSpace=wrap;rounded=0;" parent="1" vertex="1">
          <mxGeometry x="2430" y="1549" width="60" height="30" as="geometry" />
        </mxCell>
        <mxCell id="cgtVKE11mU0UAlwjLC16-389" value="&lt;font style=&quot;font-size: 23px;&quot;&gt;ER&lt;/font&gt;" style="text;html=1;align=center;verticalAlign=middle;whiteSpace=wrap;rounded=0;" parent="1" vertex="1">
          <mxGeometry x="2421" y="760" width="60" height="30" as="geometry" />
        </mxCell>
        <mxCell id="BLsTgjMZ4pQWwNHHydRY-44" value="Lähetys" style="swimlane;fontStyle=0;childLayout=stackLayout;horizontal=1;startSize=26;horizontalStack=0;resizeParent=1;resizeParentMax=0;resizeLast=0;collapsible=1;marginBottom=0;align=center;fontSize=14;" parent="1" vertex="1">
          <mxGeometry x="1110" y="910" width="160" height="116" as="geometry" />
        </mxCell>
        <mxCell id="BLsTgjMZ4pQWwNHHydRY-45" value="- lähetys_id: serial" style="text;spacingLeft=4;spacingRight=4;overflow=hidden;rotatable=0;points=[[0,0.5],[1,0.5]];portConstraint=eastwest;fontSize=12;whiteSpace=wrap;html=1;fillColor=default;" parent="BLsTgjMZ4pQWwNHHydRY-44" vertex="1">
          <mxGeometry y="26" width="160" height="30" as="geometry" />
        </mxCell>
        <mxCell id="BLsTgjMZ4pQWwNHHydRY-84" value="- lähetyksen_paino: int" style="text;spacingLeft=4;spacingRight=4;overflow=hidden;rotatable=0;points=[[0,0.5],[1,0.5]];portConstraint=eastwest;fontSize=12;whiteSpace=wrap;html=1;fillColor=default;" parent="BLsTgjMZ4pQWwNHHydRY-44" vertex="1">
          <mxGeometry y="56" width="160" height="30" as="geometry" />
        </mxCell>
        <mxCell id="BLsTgjMZ4pQWwNHHydRY-177" value="- hinta_yht: decimal" style="text;spacingLeft=4;spacingRight=4;overflow=hidden;rotatable=0;points=[[0,0.5],[1,0.5]];portConstraint=eastwest;fontSize=12;whiteSpace=wrap;html=1;fillColor=default;" parent="BLsTgjMZ4pQWwNHHydRY-44" vertex="1">
          <mxGeometry y="86" width="160" height="30" as="geometry" />
        </mxCell>
        <mxCell id="BLsTgjMZ4pQWwNHHydRY-50" value="" style="endArrow=none;html=1;rounded=0;exitX=1;exitY=0.5;exitDx=0;exitDy=0;entryX=0;entryY=0.5;entryDx=0;entryDy=0;" parent="1" source="cgtVKE11mU0UAlwjLC16-43" target="BLsTgjMZ4pQWwNHHydRY-45" edge="1">
          <mxGeometry relative="1" as="geometry">
            <mxPoint x="1070" y="1036" as="sourcePoint" />
            <mxPoint x="1208" y="1035" as="targetPoint" />
          </mxGeometry>
        </mxCell>
        <mxCell id="BLsTgjMZ4pQWwNHHydRY-65" value="Teos" style="swimlane;fontStyle=0;childLayout=stackLayout;horizontal=1;startSize=26;horizontalStack=0;resizeParent=1;resizeParentMax=0;resizeLast=0;collapsible=1;marginBottom=0;align=center;fontSize=14;" parent="1" vertex="1">
          <mxGeometry x="600" y="420" width="160" height="296" as="geometry" />
        </mxCell>
        <mxCell id="BLsTgjMZ4pQWwNHHydRY-66" value="- teos_id: serial" style="text;strokeColor=none;fillColor=default;spacingLeft=4;spacingRight=4;overflow=hidden;rotatable=0;points=[[0,0.5],[1,0.5]];portConstraint=eastwest;fontSize=12;whiteSpace=wrap;html=1;" parent="BLsTgjMZ4pQWwNHHydRY-65" vertex="1">
          <mxGeometry y="26" width="160" height="30" as="geometry" />
        </mxCell>
        <mxCell id="BLsTgjMZ4pQWwNHHydRY-67" value="- nimi: string" style="text;strokeColor=none;fillColor=default;spacingLeft=4;spacingRight=4;overflow=hidden;rotatable=0;points=[[0,0.5],[1,0.5]];portConstraint=eastwest;fontSize=12;whiteSpace=wrap;html=1;" parent="BLsTgjMZ4pQWwNHHydRY-65" vertex="1">
          <mxGeometry y="56" width="160" height="30" as="geometry" />
        </mxCell>
        <mxCell id="BLsTgjMZ4pQWwNHHydRY-69" value="- tekijä: string" style="text;strokeColor=none;fillColor=default;spacingLeft=4;spacingRight=4;overflow=hidden;rotatable=0;points=[[0,0.5],[1,0.5]];portConstraint=eastwest;fontSize=12;whiteSpace=wrap;html=1;" parent="BLsTgjMZ4pQWwNHHydRY-65" vertex="1">
          <mxGeometry y="86" width="160" height="30" as="geometry" />
        </mxCell>
        <mxCell id="BLsTgjMZ4pQWwNHHydRY-68" value="- isbn: string" style="text;strokeColor=none;fillColor=default;spacingLeft=4;spacingRight=4;overflow=hidden;rotatable=0;points=[[0,0.5],[1,0.5]];portConstraint=eastwest;fontSize=12;whiteSpace=wrap;html=1;" parent="BLsTgjMZ4pQWwNHHydRY-65" vertex="1">
          <mxGeometry y="116" width="160" height="30" as="geometry" />
        </mxCell>
        <mxCell id="BLsTgjMZ4pQWwNHHydRY-70" value="- julkaisuvuosi: int" style="text;strokeColor=none;fillColor=default;spacingLeft=4;spacingRight=4;overflow=hidden;rotatable=0;points=[[0,0.5],[1,0.5]];portConstraint=eastwest;fontSize=12;whiteSpace=wrap;html=1;" parent="BLsTgjMZ4pQWwNHHydRY-65" vertex="1">
          <mxGeometry y="146" width="160" height="30" as="geometry" />
        </mxCell>
        <mxCell id="JSi-ECLEcafVT-QjLjjl-9" value="- teostyyppi: enum type" style="text;strokeColor=none;fillColor=default;spacingLeft=4;spacingRight=4;overflow=hidden;rotatable=0;points=[[0,0.5],[1,0.5]];portConstraint=eastwest;fontSize=12;whiteSpace=wrap;html=1;" vertex="1" parent="BLsTgjMZ4pQWwNHHydRY-65">
          <mxGeometry y="176" width="160" height="30" as="geometry" />
        </mxCell>
        <mxCell id="BLsTgjMZ4pQWwNHHydRY-71" value="- teosluokka: enum type" style="text;strokeColor=none;fillColor=default;spacingLeft=4;spacingRight=4;overflow=hidden;rotatable=0;points=[[0,0.5],[1,0.5]];portConstraint=eastwest;fontSize=12;whiteSpace=wrap;html=1;" parent="BLsTgjMZ4pQWwNHHydRY-65" vertex="1">
          <mxGeometry y="206" width="160" height="30" as="geometry" />
        </mxCell>
        <mxCell id="BLsTgjMZ4pQWwNHHydRY-89" value="- paino: int" style="text;strokeColor=none;fillColor=default;spacingLeft=4;spacingRight=4;overflow=hidden;rotatable=0;points=[[0,0.5],[1,0.5]];portConstraint=eastwest;fontSize=12;whiteSpace=wrap;html=1;" parent="BLsTgjMZ4pQWwNHHydRY-65" vertex="1">
          <mxGeometry y="236" width="160" height="30" as="geometry" />
        </mxCell>
        <mxCell id="JSi-ECLEcafVT-QjLjjl-10" value="- lähde_skeema: string" style="text;strokeColor=none;fillColor=default;spacingLeft=4;spacingRight=4;overflow=hidden;rotatable=0;points=[[0,0.5],[1,0.5]];portConstraint=eastwest;fontSize=12;whiteSpace=wrap;html=1;" vertex="1" parent="BLsTgjMZ4pQWwNHHydRY-65">
          <mxGeometry y="266" width="160" height="30" as="geometry" />
        </mxCell>
        <mxCell id="BLsTgjMZ4pQWwNHHydRY-72" value="Nide" style="swimlane;fontStyle=0;childLayout=stackLayout;horizontal=1;startSize=26;horizontalStack=0;resizeParent=1;resizeParentMax=0;resizeLast=0;collapsible=1;marginBottom=0;align=center;fontSize=14;" parent="1" vertex="1">
          <mxGeometry x="340" y="510" width="160" height="176" as="geometry" />
        </mxCell>
        <mxCell id="BLsTgjMZ4pQWwNHHydRY-73" value="- nide_id: serial" style="text;strokeColor=none;fillColor=default;spacingLeft=4;spacingRight=4;overflow=hidden;rotatable=0;points=[[0,0.5],[1,0.5]];portConstraint=eastwest;fontSize=12;whiteSpace=wrap;html=1;" parent="BLsTgjMZ4pQWwNHHydRY-72" vertex="1">
          <mxGeometry y="26" width="160" height="30" as="geometry" />
        </mxCell>
        <mxCell id="BLsTgjMZ4pQWwNHHydRY-75" value="- hinta: decimal" style="text;strokeColor=none;fillColor=default;spacingLeft=4;spacingRight=4;overflow=hidden;rotatable=0;points=[[0,0.5],[1,0.5]];portConstraint=eastwest;fontSize=12;whiteSpace=wrap;html=1;" parent="BLsTgjMZ4pQWwNHHydRY-72" vertex="1">
          <mxGeometry y="56" width="160" height="30" as="geometry" />
        </mxCell>
        <mxCell id="BLsTgjMZ4pQWwNHHydRY-76" value="- sisäänostohinta: decimal" style="text;strokeColor=none;fillColor=default;spacingLeft=4;spacingRight=4;overflow=hidden;rotatable=0;points=[[0,0.5],[1,0.5]];portConstraint=eastwest;fontSize=12;whiteSpace=wrap;html=1;" parent="BLsTgjMZ4pQWwNHHydRY-72" vertex="1">
          <mxGeometry y="86" width="160" height="30" as="geometry" />
        </mxCell>
        <mxCell id="JSi-ECLEcafVT-QjLjjl-11" value="- lähde_skeema: string" style="text;strokeColor=none;fillColor=default;spacingLeft=4;spacingRight=4;overflow=hidden;rotatable=0;points=[[0,0.5],[1,0.5]];portConstraint=eastwest;fontSize=12;whiteSpace=wrap;html=1;" vertex="1" parent="BLsTgjMZ4pQWwNHHydRY-72">
          <mxGeometry y="116" width="160" height="30" as="geometry" />
        </mxCell>
        <mxCell id="BLsTgjMZ4pQWwNHHydRY-182" value="- tila: enum type" style="text;strokeColor=none;fillColor=default;spacingLeft=4;spacingRight=4;overflow=hidden;rotatable=0;points=[[0,0.5],[1,0.5]];portConstraint=eastwest;fontSize=12;whiteSpace=wrap;html=1;" parent="BLsTgjMZ4pQWwNHHydRY-72" vertex="1">
          <mxGeometry y="146" width="160" height="30" as="geometry" />
        </mxCell>
        <mxCell id="BLsTgjMZ4pQWwNHHydRY-81" value="0..*" style="text;html=1;align=center;verticalAlign=middle;whiteSpace=wrap;rounded=0;" parent="1" vertex="1">
          <mxGeometry x="490" y="523" width="60" height="30" as="geometry" />
        </mxCell>
        <mxCell id="BLsTgjMZ4pQWwNHHydRY-82" value="1" style="text;html=1;align=center;verticalAlign=middle;whiteSpace=wrap;rounded=0;" parent="1" vertex="1">
          <mxGeometry x="554" y="523" width="60" height="30" as="geometry" />
        </mxCell>
        <mxCell id="BLsTgjMZ4pQWwNHHydRY-90" value="Teos" style="swimlane;fontStyle=0;childLayout=stackLayout;horizontal=1;startSize=26;horizontalStack=0;resizeParent=1;resizeParentMax=0;resizeLast=0;collapsible=1;marginBottom=0;align=center;fontSize=14;" parent="1" vertex="1">
          <mxGeometry x="1520" y="932" width="160" height="326" as="geometry" />
        </mxCell>
        <mxCell id="BLsTgjMZ4pQWwNHHydRY-91" value="teos_id&lt;span style=&quot;white-space: pre;&quot;&gt;&#x9;&lt;/span&gt;&lt;span style=&quot;white-space: pre;&quot;&gt;&#x9;&lt;/span&gt;&lt;span style=&quot;white-space: pre;&quot;&gt;&#x9;&lt;/span&gt;&lt;span style=&quot;white-space: pre;&quot;&gt;&#x9;PK&lt;/span&gt;" style="text;strokeColor=none;fillColor=default;spacingLeft=4;spacingRight=4;overflow=hidden;rotatable=0;points=[[0,0.5],[1,0.5]];portConstraint=eastwest;fontSize=12;whiteSpace=wrap;html=1;" parent="BLsTgjMZ4pQWwNHHydRY-90" vertex="1">
          <mxGeometry y="26" width="160" height="30" as="geometry" />
        </mxCell>
        <mxCell id="BLsTgjMZ4pQWwNHHydRY-92" value="nimi" style="text;strokeColor=none;fillColor=default;spacingLeft=4;spacingRight=4;overflow=hidden;rotatable=0;points=[[0,0.5],[1,0.5]];portConstraint=eastwest;fontSize=12;whiteSpace=wrap;html=1;" parent="BLsTgjMZ4pQWwNHHydRY-90" vertex="1">
          <mxGeometry y="56" width="160" height="30" as="geometry" />
        </mxCell>
        <mxCell id="BLsTgjMZ4pQWwNHHydRY-94" value="tekijä" style="text;strokeColor=none;fillColor=default;spacingLeft=4;spacingRight=4;overflow=hidden;rotatable=0;points=[[0,0.5],[1,0.5]];portConstraint=eastwest;fontSize=12;whiteSpace=wrap;html=1;" parent="BLsTgjMZ4pQWwNHHydRY-90" vertex="1">
          <mxGeometry y="86" width="160" height="30" as="geometry" />
        </mxCell>
        <mxCell id="BLsTgjMZ4pQWwNHHydRY-93" value="isbn" style="text;strokeColor=none;fillColor=default;spacingLeft=4;spacingRight=4;overflow=hidden;rotatable=0;points=[[0,0.5],[1,0.5]];portConstraint=eastwest;fontSize=12;whiteSpace=wrap;html=1;" parent="BLsTgjMZ4pQWwNHHydRY-90" vertex="1">
          <mxGeometry y="116" width="160" height="30" as="geometry" />
        </mxCell>
        <mxCell id="BLsTgjMZ4pQWwNHHydRY-95" value="julkaisuvuosi" style="text;strokeColor=none;fillColor=default;spacingLeft=4;spacingRight=4;overflow=hidden;rotatable=0;points=[[0,0.5],[1,0.5]];portConstraint=eastwest;fontSize=12;whiteSpace=wrap;html=1;" parent="BLsTgjMZ4pQWwNHHydRY-90" vertex="1">
          <mxGeometry y="146" width="160" height="30" as="geometry" />
        </mxCell>
        <mxCell id="BLsTgjMZ4pQWwNHHydRY-96" value="teostyyppi" style="text;strokeColor=none;fillColor=default;spacingLeft=4;spacingRight=4;overflow=hidden;rotatable=0;points=[[0,0.5],[1,0.5]];portConstraint=eastwest;fontSize=12;whiteSpace=wrap;html=1;" parent="BLsTgjMZ4pQWwNHHydRY-90" vertex="1">
          <mxGeometry y="176" width="160" height="30" as="geometry" />
        </mxCell>
        <mxCell id="JSi-ECLEcafVT-QjLjjl-12" value="teosluokka" style="text;strokeColor=none;fillColor=default;spacingLeft=4;spacingRight=4;overflow=hidden;rotatable=0;points=[[0,0.5],[1,0.5]];portConstraint=eastwest;fontSize=12;whiteSpace=wrap;html=1;" vertex="1" parent="BLsTgjMZ4pQWwNHHydRY-90">
          <mxGeometry y="206" width="160" height="30" as="geometry" />
        </mxCell>
        <mxCell id="BLsTgjMZ4pQWwNHHydRY-97" value="paino" style="text;strokeColor=none;fillColor=default;spacingLeft=4;spacingRight=4;overflow=hidden;rotatable=0;points=[[0,0.5],[1,0.5]];portConstraint=eastwest;fontSize=12;whiteSpace=wrap;html=1;" parent="BLsTgjMZ4pQWwNHHydRY-90" vertex="1">
          <mxGeometry y="236" width="160" height="30" as="geometry" />
        </mxCell>
        <mxCell id="BLsTgjMZ4pQWwNHHydRY-187" value="lähde_skeema" style="text;strokeColor=none;fillColor=default;spacingLeft=4;spacingRight=4;overflow=hidden;rotatable=0;points=[[0,0.5],[1,0.5]];portConstraint=eastwest;fontSize=12;whiteSpace=wrap;html=1;" parent="BLsTgjMZ4pQWwNHHydRY-90" vertex="1">
          <mxGeometry y="266" width="160" height="30" as="geometry" />
        </mxCell>
        <mxCell id="BLsTgjMZ4pQWwNHHydRY-99" value="divari_id&lt;span style=&quot;white-space: pre;&quot;&gt;&#x9;&lt;/span&gt;&lt;span style=&quot;white-space: pre;&quot;&gt;&#x9;&lt;/span&gt;&lt;span style=&quot;white-space: pre;&quot;&gt;&#x9;&lt;/span&gt;&lt;span style=&quot;white-space: pre;&quot;&gt;&#x9;FK&lt;/span&gt;" style="text;strokeColor=none;fillColor=default;spacingLeft=4;spacingRight=4;overflow=hidden;rotatable=0;points=[[0,0.5],[1,0.5]];portConstraint=eastwest;fontSize=12;whiteSpace=wrap;html=1;" parent="BLsTgjMZ4pQWwNHHydRY-90" vertex="1">
          <mxGeometry y="296" width="160" height="30" as="geometry" />
        </mxCell>
        <mxCell id="BLsTgjMZ4pQWwNHHydRY-100" style="edgeStyle=orthogonalEdgeStyle;rounded=0;orthogonalLoop=1;jettySize=auto;html=1;entryX=0;entryY=0.5;entryDx=0;entryDy=0;" parent="1" source="BLsTgjMZ4pQWwNHHydRY-99" target="cgtVKE11mU0UAlwjLC16-219" edge="1">
          <mxGeometry relative="1" as="geometry" />
        </mxCell>
        <mxCell id="BLsTgjMZ4pQWwNHHydRY-105" style="edgeStyle=orthogonalEdgeStyle;rounded=0;orthogonalLoop=1;jettySize=auto;html=1;entryX=0;entryY=0.5;entryDx=0;entryDy=0;" parent="1" source="BLsTgjMZ4pQWwNHHydRY-104" target="BLsTgjMZ4pQWwNHHydRY-91" edge="1">
          <mxGeometry relative="1" as="geometry" />
        </mxCell>
        <mxCell id="BLsTgjMZ4pQWwNHHydRY-111" value="Nide" style="swimlane;fontStyle=0;childLayout=stackLayout;horizontal=1;startSize=26;horizontalStack=0;resizeParent=1;resizeParentMax=0;resizeLast=0;collapsible=1;marginBottom=0;align=center;fontSize=14;" parent="1" vertex="1">
          <mxGeometry x="1580" y="457" width="160" height="176" as="geometry" />
        </mxCell>
        <mxCell id="BLsTgjMZ4pQWwNHHydRY-112" value="nide_id&lt;span style=&quot;white-space: pre;&quot;&gt;&#x9;&lt;/span&gt;&lt;span style=&quot;white-space: pre;&quot;&gt;&#x9;&lt;/span&gt;&lt;span style=&quot;white-space: pre;&quot;&gt;&#x9;&lt;/span&gt;&lt;span style=&quot;white-space: pre;&quot;&gt;&#x9;PK&lt;/span&gt;" style="text;strokeColor=none;fillColor=default;spacingLeft=4;spacingRight=4;overflow=hidden;rotatable=0;points=[[0,0.5],[1,0.5]];portConstraint=eastwest;fontSize=12;whiteSpace=wrap;html=1;" parent="BLsTgjMZ4pQWwNHHydRY-111" vertex="1">
          <mxGeometry y="26" width="160" height="30" as="geometry" />
        </mxCell>
        <mxCell id="BLsTgjMZ4pQWwNHHydRY-113" value="hinta" style="text;strokeColor=none;fillColor=default;spacingLeft=4;spacingRight=4;overflow=hidden;rotatable=0;points=[[0,0.5],[1,0.5]];portConstraint=eastwest;fontSize=12;whiteSpace=wrap;html=1;" parent="BLsTgjMZ4pQWwNHHydRY-111" vertex="1">
          <mxGeometry y="56" width="160" height="30" as="geometry" />
        </mxCell>
        <mxCell id="BLsTgjMZ4pQWwNHHydRY-114" value="sisäänostohinta" style="text;strokeColor=none;fillColor=default;spacingLeft=4;spacingRight=4;overflow=hidden;rotatable=0;points=[[0,0.5],[1,0.5]];portConstraint=eastwest;fontSize=12;whiteSpace=wrap;html=1;" parent="BLsTgjMZ4pQWwNHHydRY-111" vertex="1">
          <mxGeometry y="86" width="160" height="30" as="geometry" />
        </mxCell>
        <mxCell id="BLsTgjMZ4pQWwNHHydRY-181" value="tila" style="text;strokeColor=none;fillColor=default;spacingLeft=4;spacingRight=4;overflow=hidden;rotatable=0;points=[[0,0.5],[1,0.5]];portConstraint=eastwest;fontSize=12;whiteSpace=wrap;html=1;" parent="BLsTgjMZ4pQWwNHHydRY-111" vertex="1">
          <mxGeometry y="116" width="160" height="30" as="geometry" />
        </mxCell>
        <mxCell id="BLsTgjMZ4pQWwNHHydRY-115" value="teos_id&lt;span style=&quot;white-space: pre;&quot;&gt;&#x9;&lt;/span&gt;&lt;span style=&quot;white-space: pre;&quot;&gt;&#x9;&lt;/span&gt;&lt;span style=&quot;white-space: pre;&quot;&gt;&#x9;&lt;/span&gt;&lt;span style=&quot;white-space: pre;&quot;&gt;&#x9;FK&lt;/span&gt;" style="text;strokeColor=none;fillColor=default;spacingLeft=4;spacingRight=4;overflow=hidden;rotatable=0;points=[[0,0.5],[1,0.5]];portConstraint=eastwest;fontSize=12;whiteSpace=wrap;html=1;" parent="BLsTgjMZ4pQWwNHHydRY-111" vertex="1">
          <mxGeometry y="146" width="160" height="30" as="geometry" />
        </mxCell>
        <mxCell id="BLsTgjMZ4pQWwNHHydRY-117" value="Divari_D1" style="swimlane;fontStyle=0;childLayout=stackLayout;horizontal=1;startSize=26;horizontalStack=0;resizeParent=1;resizeParentMax=0;resizeLast=0;collapsible=1;marginBottom=0;align=center;fontSize=14;" parent="1" vertex="1">
          <mxGeometry x="2190" y="500" width="160" height="146" as="geometry" />
        </mxCell>
        <mxCell id="BLsTgjMZ4pQWwNHHydRY-118" value="divari_id&lt;span style=&quot;white-space: pre;&quot;&gt;&#x9;&lt;/span&gt;&lt;span style=&quot;white-space: pre;&quot;&gt;&#x9;&lt;/span&gt;&lt;span style=&quot;white-space: pre;&quot;&gt;&#x9;&lt;/span&gt;&lt;span style=&quot;white-space: pre;&quot;&gt;&#x9;PK&lt;/span&gt;" style="text;strokeColor=none;fillColor=default;spacingLeft=4;spacingRight=4;overflow=hidden;rotatable=0;points=[[0,0.5],[1,0.5]];portConstraint=eastwest;fontSize=12;whiteSpace=wrap;html=1;" parent="BLsTgjMZ4pQWwNHHydRY-117" vertex="1">
          <mxGeometry y="26" width="160" height="30" as="geometry" />
        </mxCell>
        <mxCell id="BLsTgjMZ4pQWwNHHydRY-119" value="nimi" style="text;strokeColor=none;fillColor=default;spacingLeft=4;spacingRight=4;overflow=hidden;rotatable=0;points=[[0,0.5],[1,0.5]];portConstraint=eastwest;fontSize=12;whiteSpace=wrap;html=1;" parent="BLsTgjMZ4pQWwNHHydRY-117" vertex="1">
          <mxGeometry y="56" width="160" height="30" as="geometry" />
        </mxCell>
        <mxCell id="BLsTgjMZ4pQWwNHHydRY-120" value="osoite" style="text;strokeColor=none;fillColor=default;spacingLeft=4;spacingRight=4;overflow=hidden;rotatable=0;points=[[0,0.5],[1,0.5]];portConstraint=eastwest;fontSize=12;whiteSpace=wrap;html=1;" parent="BLsTgjMZ4pQWwNHHydRY-117" vertex="1">
          <mxGeometry y="86" width="160" height="30" as="geometry" />
        </mxCell>
        <mxCell id="JSi-ECLEcafVT-QjLjjl-18" value="web_sivu" style="text;strokeColor=none;fillColor=default;spacingLeft=4;spacingRight=4;overflow=hidden;rotatable=0;points=[[0,0.5],[1,0.5]];portConstraint=eastwest;fontSize=12;whiteSpace=wrap;html=1;" vertex="1" parent="BLsTgjMZ4pQWwNHHydRY-117">
          <mxGeometry y="116" width="160" height="30" as="geometry" />
        </mxCell>
        <mxCell id="BLsTgjMZ4pQWwNHHydRY-126" value="Teos" style="swimlane;fontStyle=0;childLayout=stackLayout;horizontal=1;startSize=26;horizontalStack=0;resizeParent=1;resizeParentMax=0;resizeLast=0;collapsible=1;marginBottom=0;align=center;fontSize=14;" parent="1" vertex="1">
          <mxGeometry x="1880" y="392" width="160" height="326" as="geometry" />
        </mxCell>
        <mxCell id="BLsTgjMZ4pQWwNHHydRY-127" value="teos_id&lt;span style=&quot;white-space: pre;&quot;&gt;&#x9;&lt;/span&gt;&lt;span style=&quot;white-space: pre;&quot;&gt;&#x9;&lt;/span&gt;&lt;span style=&quot;white-space: pre;&quot;&gt;&#x9;&lt;/span&gt;&lt;span style=&quot;white-space: pre;&quot;&gt;&#x9;PK&lt;/span&gt;" style="text;strokeColor=none;fillColor=default;spacingLeft=4;spacingRight=4;overflow=hidden;rotatable=0;points=[[0,0.5],[1,0.5]];portConstraint=eastwest;fontSize=12;whiteSpace=wrap;html=1;" parent="BLsTgjMZ4pQWwNHHydRY-126" vertex="1">
          <mxGeometry y="26" width="160" height="30" as="geometry" />
        </mxCell>
        <mxCell id="BLsTgjMZ4pQWwNHHydRY-128" value="nimi" style="text;strokeColor=none;fillColor=default;spacingLeft=4;spacingRight=4;overflow=hidden;rotatable=0;points=[[0,0.5],[1,0.5]];portConstraint=eastwest;fontSize=12;whiteSpace=wrap;html=1;" parent="BLsTgjMZ4pQWwNHHydRY-126" vertex="1">
          <mxGeometry y="56" width="160" height="30" as="geometry" />
        </mxCell>
        <mxCell id="BLsTgjMZ4pQWwNHHydRY-130" value="tekijä" style="text;strokeColor=none;fillColor=default;spacingLeft=4;spacingRight=4;overflow=hidden;rotatable=0;points=[[0,0.5],[1,0.5]];portConstraint=eastwest;fontSize=12;whiteSpace=wrap;html=1;" parent="BLsTgjMZ4pQWwNHHydRY-126" vertex="1">
          <mxGeometry y="86" width="160" height="30" as="geometry" />
        </mxCell>
        <mxCell id="BLsTgjMZ4pQWwNHHydRY-129" value="isbn" style="text;strokeColor=none;fillColor=default;spacingLeft=4;spacingRight=4;overflow=hidden;rotatable=0;points=[[0,0.5],[1,0.5]];portConstraint=eastwest;fontSize=12;whiteSpace=wrap;html=1;" parent="BLsTgjMZ4pQWwNHHydRY-126" vertex="1">
          <mxGeometry y="116" width="160" height="30" as="geometry" />
        </mxCell>
        <mxCell id="BLsTgjMZ4pQWwNHHydRY-131" value="julkaisuvuosi" style="text;strokeColor=none;fillColor=default;spacingLeft=4;spacingRight=4;overflow=hidden;rotatable=0;points=[[0,0.5],[1,0.5]];portConstraint=eastwest;fontSize=12;whiteSpace=wrap;html=1;" parent="BLsTgjMZ4pQWwNHHydRY-126" vertex="1">
          <mxGeometry y="146" width="160" height="30" as="geometry" />
        </mxCell>
        <mxCell id="BLsTgjMZ4pQWwNHHydRY-132" value="teostyyppi" style="text;strokeColor=none;fillColor=default;spacingLeft=4;spacingRight=4;overflow=hidden;rotatable=0;points=[[0,0.5],[1,0.5]];portConstraint=eastwest;fontSize=12;whiteSpace=wrap;html=1;" parent="BLsTgjMZ4pQWwNHHydRY-126" vertex="1">
          <mxGeometry y="176" width="160" height="30" as="geometry" />
        </mxCell>
        <mxCell id="JSi-ECLEcafVT-QjLjjl-16" value="teosluokka" style="text;strokeColor=none;fillColor=default;spacingLeft=4;spacingRight=4;overflow=hidden;rotatable=0;points=[[0,0.5],[1,0.5]];portConstraint=eastwest;fontSize=12;whiteSpace=wrap;html=1;" vertex="1" parent="BLsTgjMZ4pQWwNHHydRY-126">
          <mxGeometry y="206" width="160" height="30" as="geometry" />
        </mxCell>
        <mxCell id="BLsTgjMZ4pQWwNHHydRY-133" value="paino" style="text;strokeColor=none;fillColor=default;spacingLeft=4;spacingRight=4;overflow=hidden;rotatable=0;points=[[0,0.5],[1,0.5]];portConstraint=eastwest;fontSize=12;whiteSpace=wrap;html=1;" parent="BLsTgjMZ4pQWwNHHydRY-126" vertex="1">
          <mxGeometry y="236" width="160" height="30" as="geometry" />
        </mxCell>
        <mxCell id="JSi-ECLEcafVT-QjLjjl-17" value="lähde_skeema" style="text;strokeColor=none;fillColor=default;spacingLeft=4;spacingRight=4;overflow=hidden;rotatable=0;points=[[0,0.5],[1,0.5]];portConstraint=eastwest;fontSize=12;whiteSpace=wrap;html=1;" vertex="1" parent="BLsTgjMZ4pQWwNHHydRY-126">
          <mxGeometry y="266" width="160" height="30" as="geometry" />
        </mxCell>
        <mxCell id="BLsTgjMZ4pQWwNHHydRY-134" value="divari_id&lt;span style=&quot;white-space: pre;&quot;&gt;&#x9;&lt;/span&gt;&lt;span style=&quot;white-space: pre;&quot;&gt;&#x9;&lt;/span&gt;&lt;span style=&quot;white-space: pre;&quot;&gt;&#x9;&lt;/span&gt;&lt;span style=&quot;white-space: pre;&quot;&gt;&#x9;FK&lt;/span&gt;" style="text;strokeColor=none;fillColor=default;spacingLeft=4;spacingRight=4;overflow=hidden;rotatable=0;points=[[0,0.5],[1,0.5]];portConstraint=eastwest;fontSize=12;whiteSpace=wrap;html=1;" parent="BLsTgjMZ4pQWwNHHydRY-126" vertex="1">
          <mxGeometry y="296" width="160" height="30" as="geometry" />
        </mxCell>
        <mxCell id="BLsTgjMZ4pQWwNHHydRY-136" style="edgeStyle=orthogonalEdgeStyle;rounded=0;orthogonalLoop=1;jettySize=auto;html=1;entryX=0;entryY=0.5;entryDx=0;entryDy=0;" parent="1" source="BLsTgjMZ4pQWwNHHydRY-134" target="BLsTgjMZ4pQWwNHHydRY-118" edge="1">
          <mxGeometry relative="1" as="geometry" />
        </mxCell>
        <mxCell id="BLsTgjMZ4pQWwNHHydRY-137" style="edgeStyle=orthogonalEdgeStyle;rounded=0;orthogonalLoop=1;jettySize=auto;html=1;entryX=0;entryY=0.5;entryDx=0;entryDy=0;" parent="1" source="BLsTgjMZ4pQWwNHHydRY-115" target="BLsTgjMZ4pQWwNHHydRY-127" edge="1">
          <mxGeometry relative="1" as="geometry" />
        </mxCell>
        <mxCell id="BLsTgjMZ4pQWwNHHydRY-143" value="Ostoskori" style="swimlane;fontStyle=0;childLayout=stackLayout;horizontal=1;startSize=26;horizontalStack=0;resizeParent=1;resizeParentMax=0;resizeLast=0;collapsible=1;marginBottom=0;align=center;fontSize=14;" parent="1" vertex="1">
          <mxGeometry x="600" y="1144" width="160" height="86" as="geometry" />
        </mxCell>
        <mxCell id="BLsTgjMZ4pQWwNHHydRY-145" value="- tilaus_id: int" style="text;strokeColor=none;fillColor=default;spacingLeft=4;spacingRight=4;overflow=hidden;rotatable=0;points=[[0,0.5],[1,0.5]];portConstraint=eastwest;fontSize=12;whiteSpace=wrap;html=1;" parent="BLsTgjMZ4pQWwNHHydRY-143" vertex="1">
          <mxGeometry y="26" width="160" height="30" as="geometry" />
        </mxCell>
        <mxCell id="BLsTgjMZ4pQWwNHHydRY-150" value="- nide_id: int" style="text;strokeColor=none;fillColor=default;spacingLeft=4;spacingRight=4;overflow=hidden;rotatable=0;points=[[0,0.5],[1,0.5]];portConstraint=eastwest;fontSize=12;whiteSpace=wrap;html=1;" parent="BLsTgjMZ4pQWwNHHydRY-143" vertex="1">
          <mxGeometry y="56" width="160" height="30" as="geometry" />
        </mxCell>
        <mxCell id="BLsTgjMZ4pQWwNHHydRY-147" value="" style="endArrow=none;html=1;rounded=0;entryX=0.5;entryY=1;entryDx=0;entryDy=0;exitX=0.5;exitY=0;exitDx=0;exitDy=0;" parent="1" source="cgtVKE11mU0UAlwjLC16-55" target="BLsTgjMZ4pQWwNHHydRY-143" edge="1">
          <mxGeometry relative="1" as="geometry">
            <mxPoint x="660" y="1343" as="sourcePoint" />
            <mxPoint x="680" y="1301" as="targetPoint" />
          </mxGeometry>
        </mxCell>
        <mxCell id="BLsTgjMZ4pQWwNHHydRY-148" value="" style="endArrow=none;html=1;rounded=0;entryX=0;entryY=1;entryDx=0;entryDy=0;exitX=1;exitY=0.25;exitDx=0;exitDy=0;" parent="1" source="BLsTgjMZ4pQWwNHHydRY-143" target="cgtVKE11mU0UAlwjLC16-42" edge="1">
          <mxGeometry relative="1" as="geometry">
            <mxPoint x="720" y="1271" as="sourcePoint" />
            <mxPoint x="878" y="1464" as="targetPoint" />
          </mxGeometry>
        </mxCell>
        <mxCell id="BLsTgjMZ4pQWwNHHydRY-149" value="1" style="text;html=1;align=center;verticalAlign=middle;whiteSpace=wrap;rounded=0;" parent="1" vertex="1">
          <mxGeometry x="808" y="1003" width="60" height="30" as="geometry" />
        </mxCell>
        <mxCell id="BLsTgjMZ4pQWwNHHydRY-154" value="1..*" style="text;html=1;align=center;verticalAlign=middle;whiteSpace=wrap;rounded=0;" parent="1" vertex="1">
          <mxGeometry x="1060" y="925" width="60" height="30" as="geometry" />
        </mxCell>
        <mxCell id="BLsTgjMZ4pQWwNHHydRY-155" value="1" style="text;html=1;align=center;verticalAlign=middle;whiteSpace=wrap;rounded=0;" parent="1" vertex="1">
          <mxGeometry x="1000" y="925" width="60" height="30" as="geometry" />
        </mxCell>
        <mxCell id="BLsTgjMZ4pQWwNHHydRY-164" value="Lähetys" style="swimlane;fontStyle=0;childLayout=stackLayout;horizontal=1;startSize=26;horizontalStack=0;resizeParent=1;resizeParentMax=0;resizeLast=0;collapsible=1;marginBottom=0;align=center;fontSize=14;" parent="1" vertex="1">
          <mxGeometry x="2300" y="960" width="160" height="146" as="geometry" />
        </mxCell>
        <mxCell id="BLsTgjMZ4pQWwNHHydRY-165" value="lähetys_id&lt;span style=&quot;white-space: pre;&quot;&gt;&#x9;&lt;/span&gt;&lt;span style=&quot;white-space: pre;&quot;&gt;&#x9;&lt;/span&gt;&lt;span style=&quot;white-space: pre;&quot;&gt;&#x9;PK&lt;/span&gt;" style="text;strokeColor=none;fillColor=default;spacingLeft=4;spacingRight=4;overflow=hidden;rotatable=0;points=[[0,0.5],[1,0.5]];portConstraint=eastwest;fontSize=12;whiteSpace=wrap;html=1;" parent="BLsTgjMZ4pQWwNHHydRY-164" vertex="1">
          <mxGeometry y="26" width="160" height="30" as="geometry" />
        </mxCell>
        <mxCell id="BLsTgjMZ4pQWwNHHydRY-166" value="lähetyksen_paino" style="text;strokeColor=none;fillColor=default;spacingLeft=4;spacingRight=4;overflow=hidden;rotatable=0;points=[[0,0.5],[1,0.5]];portConstraint=eastwest;fontSize=12;whiteSpace=wrap;html=1;" parent="BLsTgjMZ4pQWwNHHydRY-164" vertex="1">
          <mxGeometry y="56" width="160" height="30" as="geometry" />
        </mxCell>
        <mxCell id="JSi-ECLEcafVT-QjLjjl-15" value="hinta_yht" style="text;strokeColor=none;fillColor=default;spacingLeft=4;spacingRight=4;overflow=hidden;rotatable=0;points=[[0,0.5],[1,0.5]];portConstraint=eastwest;fontSize=12;whiteSpace=wrap;html=1;" vertex="1" parent="BLsTgjMZ4pQWwNHHydRY-164">
          <mxGeometry y="86" width="160" height="30" as="geometry" />
        </mxCell>
        <mxCell id="BLsTgjMZ4pQWwNHHydRY-173" value="tilaus_id&lt;span style=&quot;white-space: pre;&quot;&gt;&#x9;&lt;/span&gt;&lt;span style=&quot;white-space: pre;&quot;&gt;&#x9;&lt;/span&gt;&lt;span style=&quot;white-space: pre;&quot;&gt;&#x9;&lt;/span&gt;&lt;span style=&quot;white-space: pre;&quot;&gt;&#x9;FK&lt;/span&gt;" style="text;strokeColor=none;fillColor=default;spacingLeft=4;spacingRight=4;overflow=hidden;rotatable=0;points=[[0,0.5],[1,0.5]];portConstraint=eastwest;fontSize=12;whiteSpace=wrap;html=1;" parent="BLsTgjMZ4pQWwNHHydRY-164" vertex="1">
          <mxGeometry y="116" width="160" height="30" as="geometry" />
        </mxCell>
        <mxCell id="BLsTgjMZ4pQWwNHHydRY-174" style="edgeStyle=orthogonalEdgeStyle;rounded=0;orthogonalLoop=1;jettySize=auto;html=1;entryX=1;entryY=0.5;entryDx=0;entryDy=0;" parent="1" source="BLsTgjMZ4pQWwNHHydRY-173" target="cgtVKE11mU0UAlwjLC16-202" edge="1">
          <mxGeometry relative="1" as="geometry" />
        </mxCell>
        <mxCell id="BLsTgjMZ4pQWwNHHydRY-186" style="edgeStyle=orthogonalEdgeStyle;rounded=0;orthogonalLoop=1;jettySize=auto;html=1;entryX=1;entryY=0.5;entryDx=0;entryDy=0;" parent="1" source="BLsTgjMZ4pQWwNHHydRY-161" target="cgtVKE11mU0UAlwjLC16-211" edge="1">
          <mxGeometry relative="1" as="geometry" />
        </mxCell>
        <mxCell id="JSi-ECLEcafVT-QjLjjl-2" value="0..*" style="text;html=1;align=center;verticalAlign=middle;whiteSpace=wrap;rounded=0;" vertex="1" parent="1">
          <mxGeometry x="670" y="1253" width="60" height="30" as="geometry" />
        </mxCell>
        <mxCell id="JSi-ECLEcafVT-QjLjjl-4" value="1" style="text;html=1;align=center;verticalAlign=middle;whiteSpace=wrap;rounded=0;" vertex="1" parent="1">
          <mxGeometry x="670" y="1350" width="60" height="30" as="geometry" />
        </mxCell>
        <mxCell id="JSi-ECLEcafVT-QjLjjl-5" value="0..*" style="text;html=1;align=center;verticalAlign=middle;whiteSpace=wrap;rounded=0;" vertex="1" parent="1">
          <mxGeometry x="740" y="1106" width="60" height="30" as="geometry" />
        </mxCell>
        <mxCell id="JSi-ECLEcafVT-QjLjjl-14" style="edgeStyle=orthogonalEdgeStyle;rounded=0;orthogonalLoop=1;jettySize=auto;html=1;entryX=1;entryY=0.5;entryDx=0;entryDy=0;" edge="1" parent="1" source="cgtVKE11mU0UAlwjLC16-242" target="cgtVKE11mU0UAlwjLC16-196">
          <mxGeometry relative="1" as="geometry">
            <Array as="points">
              <mxPoint x="2240" y="1121" />
              <mxPoint x="2240" y="1261" />
            </Array>
          </mxGeometry>
        </mxCell>
      </root>
    </mxGraphModel>
  </diagram>
</mxfile>
